<?xml version="1.0" encoding="iso-8859-1"?>
<!-- Generator: Adobe Illustrator 19.0.0, SVG Export Plug-In . SVG Version: 6.00 Build 0)  -->
<svg version="1.1" id="Capa_1" xmlns="http://www.w3.org/2000/svg" xmlns:xlink="http://www.w3.org/1999/xlink" x="0px" y="0px"
	 viewBox="0 0 512 512" style="enable-background:new 0 0 512 512;" xml:space="preserve">
<g>
	<polygon style="fill:#FEA832;" points="512,165 496.528,150 432.324,150 422,165 422,257 432.78,272 495.597,272 512,257 	"/>
	<path style="fill:#FEA832;" d="M422,437c0,8.291,6.709,15,15,15h30c24.814,0,45-20.186,45-45v-60l-15.486-15h-63.252L422,347V437z"
		/>
</g>
<g>
	<path style="fill:#FFCC33;" d="M512,105c0-24.814-20.186-45-45-45h-30c-8.291,0-15,6.709-15,15v90h90V105z"/>
	<rect x="422" y="257" style="fill:#FFCC33;" width="90" height="90"/>
</g>
<path style="fill:#FD003A;" d="M407,0H90C65.098,0,45,20.099,45,45v422c0,24.899,20.098,45,45,45h317c24.902,0,45-20.101,45-45V45
	C452,20.099,431.902,0,407,0z"/>
<path style="fill:#E50027;" d="M452,257v210c0,24.899-20.098,45-45,45H90c-24.902,0-45-20.101-45-45V257H452z"/>
<path style="fill:#B7E0F6;" d="M120,287H30c-16.569,0-30-13.431-30-30l0,0c0-16.569,13.431-30,30-30h90c16.569,0,30,13.431,30,30
	l0,0C150,273.569,136.569,287,120,287z"/>
<path style="fill:#A4D9F5;" d="M30,287h90c16.567,0,30-13.433,30-30H0C0,273.567,13.433,287,30,287z"/>
<path style="fill:#CAE8F9;" d="M317,210c24.902,0,45-20.101,45-45v-30c0-24.901-20.098-45-45-45c-57.898,0-105,47.1-105,105v122
	c0,57.9,47.102,105,105,105c24.902,0,45-20.101,45-45v-30c0-24.901-20.098-45-45-45c-8.401,0-15-6.601-15-15v-60
	C302,218.599,308.599,210,317,210z"/>
<g>
	<path style="fill:#B7E0F6;" d="M212,257v60c0,57.9,47.102,105,105,105c24.902,0,45-20.101,45-45v-30c0-24.901-20.098-45-45-45
		c-8.401,0-15-6.601-15-15v-30H212z"/>
	<path style="fill:#B7E0F6;" d="M120,135H30c-16.569,0-30-13.431-30-30l0,0c0-16.569,13.431-30,30-30h90c16.569,0,30,13.431,30,30
		l0,0C150,121.569,136.569,135,120,135z"/>
</g>
<path style="fill:#A4D9F5;" d="M120,437H30c-16.569,0-30-13.431-30-30l0,0c0-16.569,13.431-30,30-30h90c16.569,0,30,13.431,30,30
	l0,0C150,423.569,136.569,437,120,437z"/>
<g>
</g>
<g>
</g>
<g>
</g>
<g>
</g>
<g>
</g>
<g>
</g>
<g>
</g>
<g>
</g>
<g>
</g>
<g>
</g>
<g>
</g>
<g>
</g>
<g>
</g>
<g>
</g>
<g>
</g>
</svg>
